<?xml version="1.0" encoding="UTF-8" standalone="no"?>
<svg
   xmlns:dc="http://purl.org/dc/elements/1.1/"
   xmlns:cc="http://creativecommons.org/ns#"
   xmlns:rdf="http://www.w3.org/1999/02/22-rdf-syntax-ns#"
   xmlns:svg="http://www.w3.org/2000/svg"
   xmlns="http://www.w3.org/2000/svg"
   version="1.1"
   id="svg2"
   viewBox="0 0 32 32"
   height="32"
   width="32">
  <defs
     id="defs4" />
  <metadata
     id="metadata7">
    <rdf:RDF>
      <cc:Work
         rdf:about="">
        <dc:format>image/svg+xml</dc:format>
        <dc:type
           rdf:resource="http://purl.org/dc/dcmitype/StillImage" />
        <dc:title></dc:title>
      </cc:Work>
    </rdf:RDF>
  </metadata>
  <g
     transform="translate(0,-1020.3622)"
     id="layer1">
    <path
       id="rect4172"
       d="m 16,1028.3622 0,2 -4,0 -2,5 -3,0 0,2 -1.0195312,0 c -0.154553,-2.9446 -1.6490032,-5.3671 -3.6386719,-5.8984 -0.2623574,-0.069 -0.5283993,-0.1025 -0.7949219,-0.1016 1.3977106,0.9258 2.1369742,3.8607 1.7539062,6.9629 -0.3843044,3.0918 -1.3317955,5.4596 -3.3007812,5.625 0.31540022,0.135 0.49688532,0.2383 0.75390625,0.3086 2.05676275,0.5404 4.09419385,-1.0803 4.89843755,-3.8965 l 1.3476562,0 0,1 -1,0 0,1 3.1738281,0 c 0.4235068,1.1979 1.5556509,1.999 2.8261719,2 1.269804,-0 2.400952,-0.8028 2.824219,-2 l 6.175781,0 0,-1 2,0 c 0,1.6569 1.343146,3 3,3 1.656854,0 3,-1.3431 3,-3 l 3,0 0,-13 z"
       style="opacity:1;fill:#000000;fill-opacity:1;stroke:none;stroke-width:2;stroke-linecap:round;stroke-linejoin:round;stroke-miterlimit:4;stroke-dasharray:none;stroke-dashoffset:0.82549894;stroke-opacity:1" />
  </g>
</svg>
